<?xml version="1.0" encoding="UTF-8" standalone="no"?>
<svg width="77px" height="63px" viewBox="0 0 77 63" version="1.1" xmlns="http://www.w3.org/2000/svg" xmlns:xlink="http://www.w3.org/1999/xlink">
    <!-- Generator: Sketch 43.2 (39069) - http://www.bohemiancoding.com/sketch -->
    <title>Twitter-color</title>
    <desc>Created with Sketch.</desc>
    <defs></defs>
    <g id="Welcome" stroke="none" stroke-width="1" fill="none" fill-rule="evenodd">
        <g id="Desktop-v4" transform="translate(-703.000000, -613.000000)" fill="#00AAEC">
            <g id="share" transform="translate(0.000000, 580.000000)">
                <g id="share__content" transform="translate(245.000000, 23.000000)">
                    <g id="Share__Social" transform="translate(361.000000, 10.000000)">
                        <path d="M173.472727,7.45807151 C170.682889,8.72307692 167.679134,9.57854821 164.52831,9.96078007 C167.745983,7.99501625 170.214945,4.8780065 171.37812,1.16489707 C168.365452,2.98504875 165.036364,4.3092091 161.479988,5.01906826 C158.645584,1.92936078 154.594525,0 150.111175,0 C141.514374,0 134.539778,7.12134345 134.539778,15.9035753 C134.539778,17.1503792 134.673476,18.3607801 134.940873,19.5256771 C121.99442,18.8613218 110.518648,12.5362947 102.830995,2.90314193 C101.489555,5.26023835 100.723018,7.99501625 100.723018,10.9072589 C100.723018,16.4223185 103.472746,21.2912243 107.653047,24.144312 C105.103866,24.0669556 102.697296,23.3434453 100.593776,22.1603467 L100.593776,22.356013 C100.593776,30.0643554 105.963992,36.4940412 113.094569,37.9501625 C111.788782,38.3232936 110.411689,38.5098592 108.99003,38.5098592 C107.987293,38.5098592 107.006839,38.4143012 106.057581,38.2277356 C108.040772,44.543662 113.7898,49.1440953 120.608414,49.2669556 C115.278308,53.5352113 108.557739,56.0788732 101.262268,56.0788732 C100.005504,56.0788732 98.7621092,56.0060672 97.5454545,55.860455 C104.439831,60.3653304 112.631081,63 121.423973,63 C150.079979,63 165.744965,38.7692308 165.744965,17.7510293 C165.744965,17.0593716 165.731595,16.367714 165.704855,15.6897075 C168.74872,13.4463705 171.39149,10.6478873 173.472727,7.45807151" id="Twitter"></path>
                    </g>
                </g>
            </g>
        </g>
    </g>
</svg>